<?xml version="1.0" encoding="utf-8"?>
<!-- Generator: Adobe Illustrator 23.0.3, SVG Export Plug-In . SVG Version: 6.00 Build 0)  -->
<svg version="1.1" id="Flat" xmlns="http://www.w3.org/2000/svg" xmlns:xlink="http://www.w3.org/1999/xlink" x="0px" y="0px"
	 viewBox="0 0 512 512" style="enable-background:new 0 0 512 512;" xml:space="preserve">
<style type="text/css">
	.st0{fill:#7E8589;}
	.st1{fill:#4F5659;}
	.st2{fill:#E9EEF2;}
	.st3{fill:#414649;}
	.st4{fill:#9AA3A8;}
	.st5{fill:#35A872;}
	.st6{fill:#F7B030;}
	.st7{fill:#88C791;}
	.st8{fill:#2196F3;}
	.st9{fill:#455A64;}
	.st10{fill:#FAFAFA;}
	.st11{fill:#0E9347;}
	.st12{fill:#0D8944;}
	.st13{fill:#3BB54A;}
	.st14{fill:#89C763;}
	.st15{fill:#FFCA5D;}
	.st16{fill:#F6B545;}
	.st17{fill:#FFCB5B;}
	.st18{fill:#FFE27A;}
	.st19{fill:#F19920;}
	.st20{fill:#E78825;}
	.st21{fill:#57A4FF;}
	.st22{fill:#004FAC;}
</style>
<g>
	<path class="st0" d="M254,120H14l8-80h224L254,120z"/>
	<path class="st1" d="M14,120h240v272H14V120z"/>
	<path class="st2" d="M78,24h112v64H78V24z"/>
	<path class="st3" d="M214,96H54c-4.4,0-8-3.6-8-8s3.6-8,8-8h160c4.4,0,8,3.6,8,8S218.4,96,214,96z"/>
	<path class="st2" d="M54,152h160v64H54V152z"/>
	<g>
		<path class="st4" d="M150,264h-32c-4.4,0-8-3.6-8-8s3.6-8,8-8h32c4.4,0,8,3.6,8,8S154.4,264,150,264z"/>
		<path class="st4" d="M86,296H54c-4.4,0-8-3.6-8-8s3.6-8,8-8h32c4.4,0,8,3.6,8,8S90.4,296,86,296z"/>
		<path class="st4" d="M150,296h-32c-4.4,0-8-3.6-8-8s3.6-8,8-8h32c4.4,0,8,3.6,8,8S154.4,296,150,296z"/>
		<path class="st4" d="M86,328H54c-4.4,0-8-3.6-8-8s3.6-8,8-8h32c4.4,0,8,3.6,8,8S90.4,328,86,328z"/>
		<path class="st4" d="M150,328h-32c-4.4,0-8-3.6-8-8s3.6-8,8-8h32c4.4,0,8,3.6,8,8S154.4,328,150,328z"/>
		<path class="st4" d="M86,360H54c-4.4,0-8-3.6-8-8s3.6-8,8-8h32c4.4,0,8,3.6,8,8S90.4,360,86,360z"/>
		<path class="st4" d="M150,360h-32c-4.4,0-8-3.6-8-8s3.6-8,8-8h32c4.4,0,8,3.6,8,8S154.4,360,150,360z"/>
	</g>
	<path class="st5" d="M182,312h32v48h-32V312z"/>
	<path class="st6" d="M182,248h32v32h-32V248z"/>
	<path class="st3" d="M238,440H30l-16-48h240L238,440z"/>
	<path class="st7" d="M54,424h160v64H54V424z"/>
	<path class="st5" d="M150,424h32v64h-32V424z"/>
	<path class="st0" d="M254,120h64v272h-64V120z"/>
	<path class="st4" d="M86,264H54c-4.4,0-8-3.6-8-8s3.6-8,8-8h32c4.4,0,8,3.6,8,8S90.4,264,86,264z"/>
	<path class="st3" d="M278,120h16v272h-16V120z"/>
</g>
<g>
	<path class="st8" d="M347.5,14h133c9.7,0,17.5,7.8,17.5,17.5v77c0,9.7-7.8,17.5-17.5,17.5h-133c-9.7,0-17.5-7.8-17.5-17.5v-77
		C330,21.8,337.8,14,347.5,14z"/>
	<rect x="330" y="35" class="st9" width="168" height="28"/>
	<g>
		<path class="st10" d="M382.5,91h-28c-1.9,0-3.5-1.6-3.5-3.5c0-1.9,1.6-3.5,3.5-3.5h28c1.9,0,3.5,1.6,3.5,3.5
			C386,89.4,384.4,91,382.5,91z"/>
		<path class="st10" d="M403.5,105h-49c-1.9,0-3.5-1.6-3.5-3.5c0-1.9,1.6-3.5,3.5-3.5h49c1.9,0,3.5,1.6,3.5,3.5
			C407,103.4,405.4,105,403.5,105z"/>
	</g>
</g>
<g>
	<path class="st11" d="M487.5,235H337.7c-4.1,0-7.5-3.4-7.5-7.5v-82.4c0-4.1,3.4-7.5,7.5-7.5h149.8c4.1,0,7.5,3.4,7.5,7.5v82.4
		C495,231.6,491.6,235,487.5,235z"/>
	<path class="st12" d="M468.8,205c-8.6,0-16.5,4.1-21,10.9c-3.7-1.9-7.9-3.4-12.7-3.4c-13.1,0-24,9.7-25.8,22.5h78.3
		c3.7,0,6.7-2.6,7.5-6.4C493.5,215.5,482.3,205,468.8,205z"/>
	<path class="st13" d="M472.5,227.5H352.7c0-8.2-6.7-15-15-15v-52.4c8.2,0,15-6.7,15-15h119.8c0,8.2,6.7,15,15,15v52.4
		C479.3,212.5,472.5,219.3,472.5,227.5z"/>
	<g>
		<path class="st11" d="M468.8,205c-8.6,0-16.5,4.1-21,10.9c-3.7-1.9-7.9-3.4-12.7-3.4c-10.5,0-19.5,6-23.6,15h61
			c0-8.2,6.4-14.6,14.6-15C482.3,208,475.9,205,468.8,205z"/>
		<ellipse class="st11" cx="412.6" cy="186.3" rx="30" ry="33.7"/>
		<circle class="st11" cx="367.7" cy="186.3" r="7.5"/>
		<circle class="st11" cx="457.6" cy="186.3" r="7.5"/>
	</g>
	<path class="st14" d="M416.4,182.6h-7.5c-2.2,0-3.7-1.5-3.7-3.7c0-2.2,1.5-3.7,3.7-3.7h11.2c2.2,0,3.7-1.5,3.7-3.7
		c0-2.2-1.5-3.7-3.7-3.7h-3.7c0-2.2-1.5-3.7-3.7-3.7c-2.2,0-3.7,1.5-3.7,3.7c-6.4,0-11.2,4.9-11.2,11.2s4.9,11.2,11.2,11.2h7.5
		c2.2,0,3.7,1.5,3.7,3.7c0,2.2-1.5,3.7-3.7,3.7h-11.2c-2.2,0-3.7,1.5-3.7,3.7c0,2.2,1.5,3.7,3.7,3.7h3.7c0,2.2,1.5,3.7,3.7,3.7
		c2.2,0,3.7-1.5,3.7-3.7c6.4,0,11.2-4.9,11.2-11.2C427.6,187.4,422.7,182.6,416.4,182.6z"/>
	<circle class="st15" cx="427.6" cy="238.7" r="26.2"/>
	<circle class="st16" cx="461.3" cy="231.3" r="26.2"/>
	<path class="st17" d="M461.3,205c-14.6,0-26.2,11.6-26.2,26.2s11.6,26.2,26.2,26.2c14.6,0,26.2-11.6,26.2-26.2
		C487.5,216.7,475.9,205,461.3,205z M461.3,250c-10.5,0-18.7-8.2-18.7-18.7s8.2-18.7,18.7-18.7c10.5,0,18.7,8.2,18.7,18.7
		S471.8,250,461.3,250z"/>
	<path class="st16" d="M461.3,257.1L461.3,257.1c14.6,0.4,26.2-11.6,26.2-25.8h-0.4c-1.9,0-3.4,1.5-3.7,3.4
		c-0.7,5.2-3.4,10.1-7.1,13.5c-3,3-7.1,4.9-11.6,5.6C462.8,253.7,461.3,255.2,461.3,257.1z"/>
	<path class="st18" d="M461.3,205.4L461.3,205.4c-14.6-0.4-26.2,11.6-26.2,25.8h0.4c1.9,0,3.4-1.5,3.7-3.4
		c0.7-5.2,3.4-10.1,7.1-13.5c3-3,7.1-4.9,11.6-5.6C459.8,208.8,461.3,207.3,461.3,205.4z"/>
	<path class="st19" d="M445.2,233.9c0-10.5,8.2-18.7,18.7-18.7c4.5,0,8.6,1.5,12,4.5c-3.7-4.5-8.6-7.1-14.6-7.1
		c-10.5,0-18.7,8.2-18.7,18.7c0,6,2.6,10.9,6.7,14.2C446.7,242.5,445.2,238.4,445.2,233.9z"/>
	<path class="st17" d="M472.5,242.9c-0.4,0-0.7,0-1.1-0.4c-0.7-0.7-0.7-1.9,0-2.6c2.2-2.2,3.4-5.6,3.4-8.6c0-1.1,0.7-1.9,1.9-1.9
		s1.9,0.7,1.9,1.9c0,4.1-1.5,8.2-4.1,11.2C473.7,242.9,472.9,242.9,472.5,242.9z"/>
	<g>
		<path class="st19" d="M461.3,242.5c-2.2,0-3.7-1.5-3.7-3.7v-15c0-2.2,1.5-3.7,3.7-3.7c2.2,0,3.7,1.5,3.7,3.7v15
			C465,241,463.5,242.5,461.3,242.5z"/>
		<path class="st19" d="M475.2,253.4c-2.6-9.4-9.4-16.9-18-20.2c-1.5-8.6-7.1-16.1-14.2-20.6c-4.5,4.9-7.5,11.2-7.5,18.3
			c0,14.6,11.6,26.2,26.2,26.2C466.5,257.5,471,256,475.2,253.4z"/>
	</g>
	<g>
		<path class="st20" d="M449.3,245.5c-2.6-3.4-4.5-7.5-4.5-12c0-5.2,2.2-10.1,6-13.5c-0.7-1.1-1.5-1.9-2.2-2.6
			c-3.7,3.4-6,8.2-6,13.9C442.6,237.2,445.2,242.1,449.3,245.5z"/>
		<path class="st20" d="M457.6,233.5v5.2c0,2.2,1.5,3.7,3.7,3.7c2.2,0,3.7-1.5,3.7-3.7V238C462.8,236.1,460.2,234.6,457.6,233.5z"/>
	</g>
	<path class="st16" d="M475.2,253.4c-0.7-2.6-1.5-4.9-3-7.1c-3,2.2-6.7,3.7-10.9,3.7c-10.5,0-18.7-8.2-18.7-18.7
		c0-5.6,2.2-10.5,6-13.9c-1.9-1.9-3.7-3.4-6-4.5c-4.5,4.9-7.5,11.2-7.5,18.3c0,14.6,11.6,26.2,26.2,26.2
		C466.5,257.5,471,256,475.2,253.4z"/>
	<path class="st19" d="M474,250c-2.6,1.9-6,3-9.4,3.7c-1.9,0.4-3.4,1.9-3.4,3.7l0,0c5.2,0,9.7-1.5,13.9-4.1
		C474.8,252.2,474.4,251.1,474,250z"/>
	<path class="st17" d="M442.6,212.9c-4.5,4.9-7.5,11.2-7.5,18.3h0.4c1.9,0,3.4-1.5,3.7-3.4c0.7-5.2,3.4-9.7,6.7-13.1
		C444.8,214.4,443.7,213.7,442.6,212.9z"/>
	<circle class="st16" cx="427.6" cy="238.7" r="26.2"/>
	<path class="st19" d="M423.8,257.5c0,2.6,0.4,4.9,1.1,7.5c0.7,0,1.9,0,2.6,0c14.6,0,26.2-11.6,26.2-26.2c0-2.6-0.4-4.9-1.1-7.5
		c-0.7,0-1.9,0-2.6,0C435.5,231.3,423.8,242.9,423.8,257.5z"/>
	<path class="st17" d="M427.6,212.5c-14.6,0-26.2,11.6-26.2,26.2c0,14.6,11.6,26.2,26.2,26.2c14.6,0,26.2-11.6,26.2-26.2
		S442.2,212.5,427.6,212.5z M427.6,257.5c-10.5,0-18.7-8.2-18.7-18.7s8.2-18.7,18.7-18.7c10.5,0,18.7,8.2,18.7,18.7
		S438.1,257.5,427.6,257.5z"/>
	<path class="st16" d="M427.6,264.6L427.6,264.6c14.6,0.4,26.2-11.6,26.2-25.8h-0.4c-1.9,0-3.4,1.5-3.7,3.4
		c-0.7,5.2-3.4,10.1-7.1,13.5c-3,3-7.1,4.9-11.6,5.6C429.1,261.2,427.6,262.7,427.6,264.6z"/>
	<path class="st18" d="M427.6,212.9L427.6,212.9c-14.6-0.4-26.2,11.6-26.2,25.8h0.4c1.9,0,3.4-1.5,3.7-3.4
		c0.7-5.2,3.4-10.1,7.1-13.5c3-3,7.1-4.9,11.6-5.6C426.1,216.3,427.6,214.8,427.6,212.9z"/>
	<path class="st19" d="M411.5,241.4c0-10.5,8.2-18.7,18.7-18.7c4.5,0,8.6,1.5,12,4.5c-3.7-4.5-8.6-7.1-14.6-7.1
		c-10.5,0-18.7,8.2-18.7,18.7c0,6,2.6,10.9,6.7,14.2C413,250,411.5,245.9,411.5,241.4z"/>
	<path class="st17" d="M438.8,250.4c-0.4,0-0.7,0-1.1-0.4c-0.7-0.7-0.7-1.9,0-2.6c2.2-2.2,3.4-5.6,3.4-8.6c0-1.1,0.7-1.9,1.9-1.9
		c1.1,0,1.9,0.7,1.9,1.9c0,4.1-1.5,8.2-4.1,11.2C440,250.4,439.2,250.4,438.8,250.4z"/>
	<path class="st19" d="M427.6,250c-2.2,0-3.7-1.5-3.7-3.7v-15c0-2.2,1.5-3.7,3.7-3.7c2.2,0,3.7,1.5,3.7,3.7v15
		C431.3,248.5,429.8,250,427.6,250z"/>
	<g>
		<path class="st16" d="M444.8,231.6c0.7,2.2,1.5,4.5,1.5,7.1c0,10.5-8.2,18.7-18.7,18.7c-1.1,0-2.6,0-3.7-0.4v0.4
			c0,2.6,0.4,4.9,1.1,7.5c0.7,0,1.9,0,2.6,0c14.6,0,26.2-11.6,26.2-26.2c0-2.6-0.4-4.9-1.1-7.5c-0.7,0-1.9,0-2.6,0
			C448.2,231.3,446.7,231.3,444.8,231.6z"/>
		<circle class="st16" cx="446.3" cy="261.2" r="26.2"/>
	</g>
	<path class="st17" d="M446.3,235c-14.6,0-26.2,11.6-26.2,26.2c0,14.6,11.6,26.2,26.2,26.2c14.6,0,26.2-11.6,26.2-26.2
		C472.5,246.6,460.9,235,446.3,235z M446.3,279.9c-10.5,0-18.7-8.2-18.7-18.7c0-10.5,8.2-18.7,18.7-18.7c10.5,0,18.7,8.2,18.7,18.7
		C465,271.7,456.8,279.9,446.3,279.9z"/>
	<path class="st16" d="M446.3,287.1L446.3,287.1c14.6,0.4,26.2-11.6,26.2-25.8h-0.4c-1.9,0-3.4,1.5-3.7,3.4
		c-0.7,5.2-3.4,10.1-7.1,13.5c-3,3-7.1,4.9-11.6,5.6C447.8,283.7,446.3,285.2,446.3,287.1z"/>
	<path class="st18" d="M446.3,235.4L446.3,235.4c-14.6-0.4-26.2,11.6-26.2,25.8h0.4c1.9,0,3.4-1.5,3.7-3.4
		c0.7-5.2,3.4-10.1,7.1-13.5c3-3,7.1-4.9,11.6-5.6C444.8,238.7,446.3,237.2,446.3,235.4z"/>
	<path class="st19" d="M430.2,263.8c0-10.5,8.2-18.7,18.7-18.7c4.5,0,8.6,1.5,12,4.5c-3.7-4.5-8.6-7.1-14.6-7.1
		c-10.5,0-18.7,8.2-18.7,18.7c0,6,2.6,10.9,6.7,14.2C431.7,272.5,430.2,268.3,430.2,263.8z"/>
	<path class="st17" d="M457.6,272.8c-0.4,0-0.7,0-1.1-0.4c-0.7-0.7-0.7-1.9,0-2.6c2.2-2.2,3.4-5.6,3.4-8.6c0-1.1,0.7-1.9,1.9-1.9
		c1.1,0,1.9,0.7,1.9,1.9c0,4.1-1.5,8.2-4.1,11.2C458.7,272.8,457.9,272.8,457.6,272.8z"/>
	<path class="st19" d="M446.3,272.5c-2.2,0-3.7-1.5-3.7-3.7v-15c0-2.2,1.5-3.7,3.7-3.7c2.2,0,3.7,1.5,3.7,3.7v15
		C450.1,271,448.6,272.5,446.3,272.5z"/>
</g>
<g>
	<g>
		<path class="st21" d="M409,378.4v-19.8H399l19.8-19.8l19.8,19.8h-9.9v19.8H409z"/>
		<path class="st21" d="M399,315.5l-3.3-13.2H442l-3.3,13.2H399z"/>
		<path class="st21" d="M418.9,388.3c-21.9,0-39.7,17.8-39.7,39.7s17.8,39.7,39.7,39.7s39.7-17.8,39.7-39.7S440.8,388.3,418.9,388.3
			z M418.9,457.7c-16.4,0-29.8-13.3-29.8-29.8c0-16.4,13.3-29.8,29.8-29.8c16.4,0,29.8,13.3,29.8,29.8
			C448.6,444.4,435.3,457.7,418.9,457.7z"/>
		<path class="st21" d="M442,302.3l-3.3,13.2H399l-3.3-13.2H442z"/>
		<path class="st21" d="M418.9,388.3c-21.9,0-39.7,17.8-39.7,39.7s17.8,39.7,39.7,39.7s39.7-17.8,39.7-39.7S440.8,388.3,418.9,388.3
			z M418.9,457.7c-16.4,0-29.8-13.3-29.8-29.8c0-16.4,13.3-29.8,29.8-29.8c16.4,0,29.8,13.3,29.8,29.8
			C448.6,444.4,435.3,457.7,418.9,457.7z"/>
		<path class="st21" d="M438.7,358.5h-9.9v19.8H409v-19.8H399l19.8-19.8L438.7,358.5z"/>
	</g>
	<g>
		<path class="st22" d="M465.2,299h-92.6c-7.3,0-13.2,5.9-13.2,13.2v178.5c0,7.3,5.9,13.2,13.2,13.2h92.6c7.3,0,13.2-5.9,13.2-13.2
			V312.2C478.4,304.9,472.5,299,465.2,299z M437.8,305.6l-1.7,6.6h-34.5l-1.7-6.6H437.8z M471.8,490.8c0,3.7-3,6.6-6.6,6.6h-92.6
			c-3.7,0-6.6-3-6.6-6.6V312.2c0-3.7,3-6.6,6.6-6.6h20.6l2.7,10.7c0.4,1.5,1.7,2.5,3.2,2.5h39.7c1.5,0,2.8-1,3.2-2.5l2.7-10.7h20.6
			c3.7,0,6.6,3,6.6,6.6V490.8z"/>
		<path class="st22" d="M418.9,385c-23.7,0-43,19.2-43,43c0,23.7,19.2,43,43,43s43-19.2,43-43C461.8,404.2,442.6,385,418.9,385z
			 M418.9,464.3c-20.1,0-36.4-16.3-36.4-36.4c0-20.1,16.3-36.4,36.4-36.4s36.4,16.3,36.4,36.4C455.2,448,438.9,464.3,418.9,464.3z"
			/>
		<path class="st22" d="M418.9,394.9c-18.3,0-33.1,14.8-33.1,33.1c0,18.3,14.8,33.1,33.1,33.1c18.3,0,33.1-14.8,33.1-33.1
			C451.9,409.7,437.1,394.9,418.9,394.9z M418.9,454.4c-14.6,0-26.5-11.8-26.5-26.5c0-14.6,11.8-26.5,26.5-26.5s26.5,11.8,26.5,26.5
			C445.3,442.6,433.5,454.4,418.9,454.4z"/>
		<path class="st22" d="M432.1,434.6c0,5.5-4.4,9.9-9.9,9.9c0,1.8-1.5,3.3-3.3,3.3s-3.3-1.5-3.3-3.3h-3.3c-1.8,0-3.3-1.5-3.3-3.3
			c0-1.8,1.5-3.3,3.3-3.3h9.9c1.8,0,3.3-1.5,3.3-3.3s-1.5-3.3-3.3-3.3h-6.6c-5.5,0-9.9-4.4-9.9-9.9s4.4-9.9,9.9-9.9
			c0-1.8,1.5-3.3,3.3-3.3s3.3,1.5,3.3,3.3h3.3c1.8,0,3.3,1.5,3.3,3.3c0,1.8-1.5,3.3-3.3,3.3h-9.9c-1.8,0-3.3,1.5-3.3,3.3
			s1.5,3.3,3.3,3.3h6.6C427.7,424.7,432.1,429.1,432.1,434.6z"/>
		<path class="st22" d="M399,361.8h6.6v16.5c0,1.8,1.5,3.3,3.3,3.3h19.8c1.8,0,3.3-1.5,3.3-3.3v-16.5h6.6c1.8,0,3.3-1.5,3.3-3.3
			c0-0.9-0.3-1.7-1-2.3l-19.8-19.8c-1.3-1.3-3.4-1.3-4.7,0c0,0,0,0,0,0l-19.8,19.8c-1.3,1.3-1.3,3.4,0,4.7
			C397.3,361.5,398.2,361.8,399,361.8L399,361.8z M418.9,343.4l11.9,11.9h-1.9c-1.8,0-3.3,1.5-3.3,3.3V375h-13.2v-16.5
			c0-1.8-1.5-3.3-3.3-3.3H407L418.9,343.4z"/>
	</g>
</g>
</svg>
